<svg width="24" height="24" viewBox="0 0 24 24" fill="none" xmlns="http://www.w3.org/2000/svg">
<path fill-rule="evenodd" clip-rule="evenodd" d="M11.5612 1.18555C8.94105 1.18555 6.81699 3.30961 6.81699 5.92977V8.23221H2C1.44772 8.23221 1 8.67992 1 9.23221V16.9672C1 20.2809 3.68629 22.9672 7 22.9672H17C20.3137 22.9672 23 20.2809 23 16.9672V9.23221C23 8.67992 22.5523 8.23221 22 8.23221H17.1837V5.92977C17.1837 3.30961 15.0596 1.18555 12.4394 1.18555H11.5612ZM15.9837 9.43221V10.074C15.9837 10.4054 16.2523 10.674 16.5837 10.674C16.915 10.674 17.1837 10.4054 17.1837 10.074V9.43221H21.8V16.9672C21.8 19.6182 19.651 21.7672 17 21.7672H7C4.34903 21.7672 2.2 19.6182 2.2 16.9672V9.43221H6.81699V10.074C6.81699 10.4054 7.08562 10.674 7.41699 10.674C7.74836 10.674 8.01699 10.4054 8.01699 10.074V9.43221H15.9837ZM15.9837 8.23221V5.92977C15.9837 3.97235 14.3969 2.38555 12.4394 2.38555H11.5612C9.60379 2.38555 8.01699 3.97235 8.01699 5.92977V8.23221H15.9837Z" fill="#0F0F0F"/>
</svg>
