<svg width="22" height="22" viewBox="0 0 22 22" fill="none" xmlns="http://www.w3.org/2000/svg">
<g clip-path="url(#clip0_183_12177)">
<path d="M3.57633 3.57523L3.57622 3.57534C1.60707 5.54455 0.500571 8.21517 0.5 11L3.57633 3.57523ZM3.57633 3.57523C5.54326 1.60699 8.21584 0.5 11 0.5C13.7842 0.5 16.4567 1.60699 18.4237 3.57523L18.4238 3.57538C20.3926 5.5438 21.5 8.21646 21.5 11C21.5 13.7835 20.3926 16.4562 18.4238 18.4246L18.4237 18.4248C16.4567 20.393 13.7842 21.5 11 21.5C8.21584 21.5 5.54326 20.393 3.57633 18.4248L3.57618 18.4246M3.57633 3.57523L3.57618 18.4246M3.57618 18.4246C1.60746 16.4562 0.500026 13.7836 0.5 11.0001L3.57618 18.4246Z" fill="url(#paint0_linear_183_12177)" stroke="#FAFAFA"/>
<path d="M4.97732 10.8838C8.18451 9.48679 10.3226 8.56571 11.3917 8.12073C14.4476 6.85006 15.0818 6.62937 15.4961 6.62189C15.5872 6.62043 15.79 6.64295 15.9223 6.74994C16.0323 6.84017 16.0633 6.9622 16.0787 7.04788C16.0925 7.13348 16.1114 7.32856 16.0959 7.48084C15.9309 9.22021 15.2142 13.4411 14.8498 15.3893C14.6969 16.2136 14.3926 16.49 14.0987 16.517C13.4593 16.5758 12.9747 16.0949 12.3559 15.6894C11.3883 15.0547 10.8417 14.6597 9.90154 14.0404C8.81529 13.3248 9.51997 12.9313 10.1387 12.2885C10.3003 12.1203 13.1156 9.56018 13.1689 9.32798C13.1758 9.29893 13.1826 9.19065 13.1173 9.13359C13.0537 9.07635 12.9592 9.09595 12.8904 9.11142C12.7925 9.13342 11.2473 10.1557 8.24982 12.1782C7.81154 12.4797 7.41451 12.6266 7.05701 12.6189C6.66513 12.6104 5.90888 12.3968 5.34685 12.2143C4.65935 11.9903 4.11107 11.8719 4.15919 11.4915C4.18326 11.2935 4.45654 11.0909 4.97732 10.8838Z" fill="white"/>
</g>
<defs>
<linearGradient id="paint0_linear_183_12177" x1="11" y1="0" x2="11" y2="22" gradientUnits="userSpaceOnUse">
<stop stop-color="#2AABEE"/>
<stop offset="1" stop-color="#229ED9"/>
</linearGradient>
<clipPath id="clip0_183_12177">
<rect width="22" height="22" fill="white"/>
</clipPath>
</defs>
</svg>


