<svg width="40" height="40" viewBox="0 0 40 40" fill="none" xmlns="http://www.w3.org/2000/svg">
<g clip-path="url(#clip0_20_2146)">
<path d="M20 0C14.6969 0 9.60625 2.10844 5.85938 5.85781C2.10863 9.60868 0.00103897 14.6956 0 20C0 25.3022 2.10938 30.3928 5.85938 34.1422C9.60625 37.8916 14.6969 40 20 40C25.3031 40 30.3937 37.8916 34.1406 34.1422C37.8906 30.3928 40 25.3022 40 20C40 14.6978 37.8906 9.60719 34.1406 5.85781C30.3937 2.10844 25.3031 0 20 0Z" fill="url(#paint0_linear_20_2146)"/>
<path d="M9.0534 19.7887C14.8846 17.2487 18.7722 15.574 20.7159 14.7649C26.2722 12.4546 27.4253 12.0534 28.1784 12.0398C28.344 12.0371 28.7128 12.0781 28.9534 12.2726C29.1534 12.4367 29.2096 12.6585 29.2378 12.8143C29.2628 12.9699 29.2971 13.3246 29.269 13.6015C28.969 16.764 27.6659 24.4384 27.0034 27.9806C26.7253 29.4793 26.1721 29.9818 25.6378 30.0309C24.4753 30.1378 23.594 29.2634 22.469 28.5262C20.7097 27.3721 19.7159 26.654 18.0065 25.5281C16.0315 24.2268 17.3128 23.5115 18.4378 22.3428C18.7315 22.0368 23.8503 17.3821 23.9471 16.9599C23.9597 16.9071 23.9722 16.7103 23.8534 16.6065C23.7378 16.5024 23.5659 16.5381 23.4409 16.5662C23.2628 16.6062 20.4534 18.465 15.0034 22.1421C14.2065 22.6903 13.4846 22.9575 12.8346 22.9434C12.1221 22.9281 10.7471 22.5396 9.72527 22.2078C8.47527 21.8006 7.4784 21.5853 7.5659 20.8937C7.60965 20.5337 8.10652 20.1653 9.0534 19.7887Z" fill="white"/>
</g>
<defs>
<linearGradient id="paint0_linear_20_2146" x1="20" y1="0" x2="20" y2="40" gradientUnits="userSpaceOnUse">
<stop stop-color="#2AABEE"/>
<stop offset="1" stop-color="#229ED9"/>
</linearGradient>
<clipPath id="clip0_20_2146">
<rect width="40" height="40" fill="white"/>
</clipPath>
</defs>
</svg>
