<svg width="24" height="24" viewBox="0 0 24 24" fill="none" xmlns="http://www.w3.org/2000/svg">
<path d="M12 22C11.7116 22 11.4326 21.9606 11.2 21.872C7.64651 20.5824 2 16.0047 2 9.24145C2 5.79585 4.63256 3 7.86977 3C9.44186 3 10.9116 3.64974 12 4.8114C13.0884 3.64974 14.5581 3 16.1302 3C19.3674 3 22 5.8057 22 9.24145C22 16.0145 16.3535 20.5824 12.8 21.872C12.5674 21.9606 12.2884 22 12 22ZM7.86977 4.47668C5.40465 4.47668 3.39535 6.61295 3.39535 9.24145C3.39535 15.9653 9.50698 19.7062 11.6558 20.4839C11.8233 20.543 12.186 20.543 12.3535 20.4839C14.493 19.7062 20.614 15.9751 20.614 9.24145C20.614 6.61295 18.6047 4.47668 16.1395 4.47668C14.7256 4.47668 13.414 5.17565 12.5674 6.38653C12.307 6.76062 11.7116 6.76062 11.4512 6.38653C10.586 5.1658 9.28372 4.47668 7.86977 4.47668Z" fill="#0F0F0F"/>
</svg>
