<svg width="37" height="37" viewBox="0 0 37 37" fill="none" xmlns="http://www.w3.org/2000/svg">
<rect width="36.0015" height="36" rx="8" transform="matrix(4.37114e-08 1 1 -4.37114e-08 0.666992 0)" fill="#0F0F0F"/>
<path fill-rule="evenodd" clip-rule="evenodd" d="M16.31 11.044C17.092 11.008 17.3413 11 19.3333 11C21.3253 11 21.5747 11.0087 22.356 11.044C23.1373 11.0793 23.6707 11.204 24.1373 11.3847C24.626 11.5693 25.0693 11.858 25.436 12.2313C25.8093 12.5973 26.0973 13.04 26.2813 13.5293C26.4627 13.996 26.5867 14.5293 26.6227 15.3093C26.6587 16.0927 26.6667 16.342 26.6667 18.3333C26.6667 20.3253 26.658 20.5747 26.6227 21.3567C26.5873 22.1367 26.4627 22.67 26.2813 23.1367C26.0973 23.6261 25.8089 24.0695 25.436 24.436C25.0693 24.8093 24.626 25.0973 24.1373 25.2813C23.6707 25.4627 23.1373 25.5867 22.3573 25.6227C21.5747 25.6587 21.3253 25.6667 19.3333 25.6667C17.3413 25.6667 17.092 25.658 16.31 25.6227C15.53 25.5873 14.9967 25.4627 14.53 25.2813C14.0406 25.0973 13.5972 24.8088 13.2307 24.436C12.8576 24.0698 12.5689 23.6266 12.3847 23.1373C12.204 22.6707 12.08 22.1373 12.044 21.3573C12.008 20.574 12 20.3247 12 18.3333C12 16.3413 12.0087 16.092 12.044 15.3107C12.0793 14.5293 12.204 13.996 12.3847 13.5293C12.5691 13.0401 12.8581 12.5969 13.2313 12.2307C13.5974 11.8577 14.0403 11.569 14.5293 11.3847C14.996 11.204 15.5293 11.08 16.3093 11.044H16.31ZM22.2967 12.364C21.5233 12.3287 21.2913 12.3213 19.3333 12.3213C17.3753 12.3213 17.1433 12.3287 16.37 12.364C15.6547 12.3967 15.2667 12.516 15.008 12.6167C14.666 12.75 14.4213 12.908 14.1647 13.1647C13.9214 13.4014 13.7341 13.6895 13.6167 14.008C13.516 14.2667 13.3967 14.6547 13.364 15.37C13.3287 16.1433 13.3213 16.3753 13.3213 18.3333C13.3213 20.2913 13.3287 20.5233 13.364 21.2967C13.3967 22.012 13.516 22.4 13.6167 22.6587C13.734 22.9767 13.9213 23.2653 14.1647 23.502C14.4013 23.7453 14.69 23.9327 15.008 24.05C15.2667 24.1507 15.6547 24.27 16.37 24.3027C17.1433 24.338 17.3747 24.3453 19.3333 24.3453C21.292 24.3453 21.5233 24.338 22.2967 24.3027C23.012 24.27 23.4 24.1507 23.6587 24.05C24.0007 23.9167 24.2453 23.7587 24.502 23.502C24.7453 23.2653 24.9327 22.9767 25.05 22.6587C25.1507 22.4 25.27 22.012 25.3027 21.2967C25.338 20.5233 25.3453 20.2913 25.3453 18.3333C25.3453 16.3753 25.338 16.1433 25.3027 15.37C25.27 14.6547 25.1507 14.2667 25.05 14.008C24.9167 13.666 24.7587 13.4213 24.502 13.1647C24.2653 12.9214 23.9771 12.7341 23.6587 12.6167C23.4 12.516 23.012 12.3967 22.2967 12.364ZM18.3967 20.594C18.9198 20.8118 19.5023 20.8411 20.0446 20.6771C20.587 20.5132 21.0556 20.1659 21.3704 19.6948C21.6852 19.2237 21.8267 18.6579 21.7707 18.0941C21.7147 17.5302 21.4647 17.0033 21.0633 16.6033C20.8075 16.3477 20.4981 16.1519 20.1576 16.0301C19.817 15.9083 19.4536 15.8636 19.0937 15.8991C18.7337 15.9346 18.3861 16.0495 18.0759 16.2354C17.7656 16.4214 17.5005 16.6738 17.2995 16.9746C17.0986 17.2753 16.9668 17.6169 16.9137 17.9746C16.8606 18.3324 16.8874 18.6975 16.9924 19.0437C17.0973 19.3898 17.2777 19.7084 17.5205 19.9765C17.7633 20.2446 18.0625 20.4555 18.3967 20.594ZM16.668 15.668C17.018 15.318 17.4335 15.0403 17.8909 14.8509C18.3482 14.6615 18.8383 14.564 19.3333 14.564C19.8283 14.564 20.3185 14.6615 20.7758 14.8509C21.2331 15.0403 21.6486 15.318 21.9987 15.668C22.3487 16.018 22.6263 16.4335 22.8158 16.8909C23.0052 17.3482 23.1027 17.8383 23.1027 18.3333C23.1027 18.8283 23.0052 19.3185 22.8158 19.7758C22.6263 20.2331 22.3487 20.6487 21.9987 20.9987C21.2918 21.7056 20.333 22.1027 19.3333 22.1027C18.3336 22.1027 17.3749 21.7056 16.668 20.9987C15.9611 20.2918 15.564 19.333 15.564 18.3333C15.564 17.3336 15.9611 16.3749 16.668 15.668ZM23.9387 15.1253C24.0254 15.0435 24.0948 14.9451 24.1429 14.836C24.1909 14.7268 24.2165 14.6092 24.2183 14.49C24.22 14.3707 24.1978 14.2524 24.153 14.1419C24.1082 14.0314 24.0416 13.931 23.9573 13.8467C23.873 13.7624 23.7726 13.6958 23.6621 13.651C23.5516 13.6062 23.4333 13.584 23.314 13.5857C23.1948 13.5875 23.0772 13.6131 22.968 13.6611C22.8589 13.7092 22.7605 13.7786 22.6787 13.8653C22.5195 14.034 22.4324 14.2581 22.4358 14.49C22.4392 14.7218 22.5328 14.9433 22.6968 15.1072C22.8607 15.2712 23.0822 15.3648 23.314 15.3682C23.5459 15.3716 23.77 15.2845 23.9387 15.1253Z" fill="white"/>
</svg>
