<svg width="37" height="37" viewBox="0 0 37 37" fill="none" xmlns="http://www.w3.org/2000/svg">
<rect width="36.0015" height="36" rx="8" transform="matrix(4.37114e-08 1 1 -4.37114e-08 0.666992 0)" fill="#0F0F0F"/>
<path d="M14.7917 13.9173C15.5973 13.9173 16.2503 13.2643 16.2503 12.4587C16.2503 11.6531 15.5973 11 14.7917 11C13.9861 11 13.333 11.6531 13.333 12.4587C13.333 13.2643 13.9861 13.9173 14.7917 13.9173Z" fill="white"/>
<path d="M17.6249 15.0228V23.1154H20.1376V19.1134C20.1376 18.0574 20.3363 17.0348 21.6456 17.0348C22.9369 17.0348 22.9529 18.2421 22.9529 19.1801V23.1161H25.4669V18.6781C25.4669 16.4981 24.9976 14.8228 22.4496 14.8228C21.2263 14.8228 20.4063 15.4941 20.0709 16.1294H20.0369V15.0228H17.6249ZM13.5303 15.0228H16.0469V23.1154H13.5303V15.0228Z" fill="white"/>
</svg>
