<svg width="162" height="53" viewBox="0 0 162 53" fill="none" xmlns="http://www.w3.org/2000/svg">
<path d="M94.7439 0C94.6929 0 94.6444 0.00512874 94.5985 0.0153875C94.5322 0.00512874 94.4659 -0.00255967 94.3971 0.00513437C93.9074 0.0615574 86.7262 0.920723 80.3865 4.44203C74.0902 0.920723 66.9676 0.0589927 66.4805 0.00513437C66.4066 -0.00512435 66.3352 0.00256938 66.2638 0.0128281C66.2204 0.00513406 66.1771 0 66.1337 0C65.7231 0 65.3916 0.33341 65.3916 0.746323V19.5531C65.3916 23.7259 68.768 27.1189 72.9171 27.1189H77.13C77.5405 27.1189 77.8695 26.7855 77.8695 26.3752C77.8695 25.9623 77.538 25.6289 77.13 25.6289H72.9171C69.5841 25.6289 66.8732 22.9026 66.8732 19.5531V1.56446C68.5818 1.82605 73.9015 2.80064 78.8513 5.35762C75.35 7.61454 72.3204 10.7845 71.1499 15.206C71.0453 15.6061 71.2799 16.0113 71.6752 16.119C71.7389 16.137 71.8027 16.1447 71.8665 16.1447C72.1929 16.1447 72.4938 15.9241 72.583 15.5907C73.7077 11.341 76.8291 8.32752 80.3814 6.21166C83.9083 8.33009 87.0118 11.3436 88.1339 15.5907C88.2231 15.9241 88.5215 16.1447 88.8505 16.1447C88.9142 16.1447 88.978 16.137 89.0417 16.119C89.437 16.0113 89.6716 15.6061 89.5671 15.206C88.3991 10.7871 85.3899 7.61967 81.9141 5.36275C86.9073 2.79807 92.283 1.82349 93.9993 1.56446V19.9122C93.9993 23.0642 91.4491 25.6289 88.315 25.6289H83.7323C83.3218 25.6289 82.9902 25.9623 82.9902 26.3752C82.9902 26.7881 83.3218 27.1189 83.7323 27.1189H88.315C92.2677 27.1189 95.4809 23.8874 95.4809 19.9122V0.746323C95.4834 0.33341 95.1519 0 94.7439 0Z" fill="#0F0F0F"/>
<path d="M2.17716 41.9286V52.6992H1.18057V41.9286H2.17716ZM6.31684 52.2222V52.6992H2.13117V52.2222H6.31684ZM7.2521 50.2066L6.36283 52.6992H3.8177L4.36966 52.2222C4.91139 52.2222 5.35091 52.1402 5.68822 51.9761C6.03575 51.8017 6.31684 51.5606 6.53149 51.2529C6.74614 50.9451 6.93523 50.5964 7.09878 50.2066H7.2521ZM1.22657 51.576V52.6992H0V52.5454C0 52.5454 0.0306642 52.5454 0.0919927 52.5454C0.163543 52.5454 0.199318 52.5454 0.199318 52.5454C0.465075 52.5454 0.689946 52.453 0.873931 52.2684C1.06814 52.0735 1.17035 51.8427 1.18057 51.576H1.22657ZM1.22657 43.0518H1.18057C1.17035 42.7851 1.06814 42.5594 0.873931 42.3748C0.689946 42.1799 0.465075 42.0824 0.199318 42.0824C0.199318 42.0824 0.163543 42.0824 0.0919927 42.0824C0.0306642 42.0824 0 42.0824 0 42.0824V41.9286H1.22657V43.0518ZM2.13117 43.0518V41.9286H3.35774V42.0824C3.34752 42.0824 3.31174 42.0824 3.25041 42.0824C3.18908 42.0824 3.15842 42.0824 3.15842 42.0824C2.89266 42.0824 2.66268 42.1799 2.46847 42.3748C2.28449 42.5594 2.18738 42.7851 2.17716 43.0518H2.13117Z" fill="#0F0F0F"/>
<path d="M13.3984 41.9286V52.6992H12.4018V41.9286H13.3984ZM17.538 52.2222V52.6992H13.3524V52.2222H17.538ZM16.8788 47.16V47.6216H13.3524V47.16H16.8788ZM17.538 41.9286V42.4056H13.3524V41.9286H17.538ZM18.4733 50.2066L17.584 52.6992H15.0389L15.5909 52.2222C16.1326 52.2222 16.5721 52.1402 16.9094 51.9761C17.257 51.8017 17.538 51.5606 17.7527 51.2529C17.9673 50.9451 18.1564 50.5964 18.32 50.2066H18.4733ZM16.8788 47.5909V48.6064H16.7254V48.3756C16.7254 48.1704 16.6539 47.996 16.5108 47.8524C16.3677 47.6986 16.1939 47.6216 15.9895 47.6216V47.5909H16.8788ZM16.8788 46.1753V47.1908H15.9895V47.16C16.1939 47.1498 16.3677 47.0728 16.5108 46.9292C16.6539 46.7754 16.7254 46.5959 16.7254 46.3907V46.1753H16.8788ZM17.538 42.3594V43.5903H17.3847V43.3134C17.3847 43.0672 17.2978 42.8569 17.1241 42.6825C16.9503 42.4979 16.7357 42.4004 16.4801 42.3902V42.3594H17.538ZM17.538 41.6516V42.0978L15.6675 41.9286C15.8924 41.9286 16.1275 41.9132 16.3728 41.8824C16.6283 41.8516 16.8634 41.8157 17.0781 41.7747C17.2927 41.7337 17.446 41.6926 17.538 41.6516ZM12.4478 51.576V52.6992H11.2212V52.5454C11.2212 52.5454 11.2519 52.5454 11.3132 52.5454C11.3847 52.5454 11.4205 52.5454 11.4205 52.5454C11.6863 52.5454 11.9111 52.453 12.0951 52.2684C12.2893 52.0735 12.3916 51.8427 12.4018 51.576H12.4478ZM12.4478 43.0518H12.4018C12.4018 42.7851 12.3047 42.5594 12.1105 42.3748C11.9163 42.1799 11.6863 42.0824 11.4205 42.0824C11.4205 42.0824 11.3899 42.0824 11.3285 42.0824C11.2672 42.0824 11.2365 42.0824 11.2365 42.0824L11.2212 41.9286H12.4478V43.0518Z" fill="#0F0F0F"/>
<path d="M24.934 41.9286V52.6992H23.9374V41.9286H24.934ZM23.9834 51.576V52.6992H22.7568V52.5454C22.7568 52.5454 22.7875 52.5454 22.8488 52.5454C22.9204 52.5454 22.9562 52.5454 22.9562 52.5454C23.2219 52.5454 23.4468 52.453 23.6308 52.2684C23.825 52.0735 23.9272 51.8427 23.9374 51.576H23.9834ZM23.9834 43.0518H23.9374C23.9272 42.7851 23.825 42.5594 23.6308 42.3748C23.4468 42.1799 23.2219 42.0824 22.9562 42.0824C22.9562 42.0824 22.9204 42.0824 22.8488 42.0824C22.7875 42.0824 22.7568 42.0824 22.7568 42.0824V41.9286H23.9834V43.0518ZM24.888 51.576H24.934C24.9442 51.8427 25.0413 52.0735 25.2253 52.2684C25.4195 52.453 25.6495 52.5454 25.9153 52.5454C25.9153 52.5454 25.9459 52.5454 26.0072 52.5454C26.0686 52.5454 26.1043 52.5454 26.1146 52.5454V52.6992H24.888V51.576ZM24.888 43.0518V41.9286H26.1146V42.0824C26.1043 42.0824 26.0686 42.0824 26.0072 42.0824C25.9459 42.0824 25.9153 42.0824 25.9153 42.0824C25.6495 42.0824 25.4195 42.1799 25.2253 42.3748C25.0413 42.5594 24.9442 42.7851 24.934 43.0518H24.888Z" fill="#0F0F0F"/>
<path d="M32.951 41.9286V52.6992H31.9544V41.9286H32.951ZM37.0907 52.2222V52.6992H32.905V52.2222H37.0907ZM38.026 50.2066L37.1367 52.6992H34.5916L35.1435 52.2222C35.6852 52.2222 36.1248 52.1402 36.4621 51.9761C36.8096 51.8017 37.0907 51.5606 37.3053 51.2529C37.52 50.9451 37.7091 50.5964 37.8726 50.2066H38.026ZM32.0004 51.576V52.6992H30.7739V52.5454C30.7739 52.5454 30.8045 52.5454 30.8659 52.5454C30.9374 52.5454 30.9732 52.5454 30.9732 52.5454C31.2389 52.5454 31.4638 52.453 31.6478 52.2684C31.842 52.0735 31.9442 51.8427 31.9544 51.576H32.0004ZM32.0004 43.0518H31.9544C31.9442 42.7851 31.842 42.5594 31.6478 42.3748C31.4638 42.1799 31.2389 42.0824 30.9732 42.0824C30.9732 42.0824 30.9374 42.0824 30.8659 42.0824C30.8045 42.0824 30.7739 42.0824 30.7739 42.0824V41.9286H32.0004V43.0518ZM32.905 43.0518V41.9286H34.1316V42.0824C34.1214 42.0824 34.0856 42.0824 34.0243 42.0824C33.9629 42.0824 33.9323 42.0824 33.9323 42.0824C33.6665 42.0824 33.4365 42.1799 33.2423 42.3748C33.0583 42.5594 32.9612 42.7851 32.951 43.0518H32.905Z" fill="#0F0F0F"/>
<path d="M46.804 41.7132L51.3423 52.6069H50.039L46.4973 43.1749L46.804 41.7132ZM43.5075 51.576C43.436 51.7812 43.4258 51.9555 43.4769 52.0991C43.528 52.2428 43.6098 52.3556 43.7222 52.4377C43.8449 52.5095 43.9675 52.5454 44.0902 52.5454H44.2282V52.6992H41.1464V52.5454C41.1464 52.5454 41.172 52.5454 41.2231 52.5454C41.264 52.5454 41.2844 52.5454 41.2844 52.5454C41.5195 52.5454 41.7597 52.4736 42.005 52.3299C42.2605 52.1761 42.4701 51.9248 42.6336 51.576H43.5075ZM46.804 41.7132L46.9419 42.7902L43.0936 52.6531H42.1737L46.0987 43.298C46.0987 43.298 46.1242 43.2364 46.1753 43.1133C46.2367 42.98 46.3031 42.821 46.3747 42.6364C46.4564 42.4517 46.5229 42.2722 46.574 42.0978C46.6353 41.9234 46.666 41.7952 46.666 41.7132H46.804ZM48.9658 48.4987V48.9603H44.1668V48.4987H48.9658ZM49.6557 51.576H50.913C51.0663 51.9248 51.2707 52.1761 51.5263 52.3299C51.7818 52.4736 52.0271 52.5454 52.2622 52.5454C52.2622 52.5454 52.2826 52.5454 52.3235 52.5454C52.3644 52.5454 52.3849 52.5454 52.3849 52.5454V52.6992H48.9351V52.5454H49.0731C49.2673 52.5454 49.4411 52.4633 49.5944 52.2992C49.7477 52.1248 49.7682 51.8837 49.6557 51.576Z" fill="#0F0F0F"/>
<path d="M73.0819 41.7132L73.2046 42.7441L69.3562 51.3452C69.3562 51.3452 69.3153 51.4324 69.2335 51.6068C69.162 51.7812 69.0853 51.9914 69.0036 52.2376C68.9218 52.4736 68.8656 52.6992 68.8349 52.9146H68.6816L68.4669 51.9453L73.0819 41.7132ZM63.6526 51.576V52.6992H61.9508V52.5454C61.961 52.5454 62.0019 52.5454 62.0734 52.5454C62.1552 52.5454 62.1961 52.5454 62.1961 52.5454C62.4721 52.5454 62.7174 52.4633 62.932 52.2992C63.1467 52.1248 63.2745 51.8837 63.3153 51.576H63.6526ZM64.0973 51.8222C64.0973 51.8324 64.0973 51.8427 64.0973 51.853C64.0973 51.8632 64.0973 51.8786 64.0973 51.8991C64.0973 52.0632 64.1535 52.2171 64.2659 52.3607C64.3886 52.4941 64.5317 52.5607 64.6952 52.5607H64.9252V52.6992H63.99V51.8222H64.0973ZM64.4652 41.7132H64.6186L64.9252 42.621L64.0206 52.6992H63.1927L64.4652 41.7132ZM64.6186 41.7132L69.0342 51.299L68.6816 52.9146L64.3273 43.4365L64.6186 41.7132ZM73.2199 41.7132L74.5385 52.6992H73.3426L72.4993 43.3749L73.0819 41.7132H73.2199ZM74.0785 51.576H74.4005C74.4516 51.8837 74.5845 52.1248 74.7991 52.2992C75.0138 52.4633 75.254 52.5454 75.5197 52.5454C75.5197 52.5454 75.5606 52.5454 75.6424 52.5454C75.7241 52.5454 75.765 52.5454 75.765 52.5454V52.6992H74.0785V51.576ZM73.2659 51.8222H73.3732V52.6992H72.438V52.5607H72.6679C72.8417 52.5607 72.9848 52.4941 73.0972 52.3607C73.2097 52.2171 73.2659 52.0632 73.2659 51.8991C73.2659 51.8786 73.2659 51.8632 73.2659 51.853C73.2659 51.8427 73.2659 51.8324 73.2659 51.8222Z" fill="#0F0F0F"/>
<path d="M81.9234 41.9286V52.6992H80.9268V41.9286H81.9234ZM86.0631 52.2222V52.6992H81.8774V52.2222H86.0631ZM85.4038 47.16V47.6216H81.8774V47.16H85.4038ZM86.0631 41.9286V42.4056H81.8774V41.9286H86.0631ZM86.9983 50.2066L86.1091 52.6992H83.5639L84.1159 52.2222C84.6576 52.2222 85.0971 52.1402 85.4345 51.9761C85.782 51.8017 86.0631 51.5606 86.2777 51.2529C86.4924 50.9451 86.6815 50.5964 86.845 50.2066H86.9983ZM85.4038 47.5909V48.6064H85.2505V48.3756C85.2505 48.1704 85.1789 47.996 85.0358 47.8524C84.8927 47.6986 84.719 47.6216 84.5145 47.6216V47.5909H85.4038ZM85.4038 46.1753V47.1908H84.5145V47.16C84.719 47.1498 84.8927 47.0728 85.0358 46.9292C85.1789 46.7754 85.2505 46.5959 85.2505 46.3907V46.1753H85.4038ZM86.0631 42.3594V43.5903H85.9098V43.3134C85.9098 43.0672 85.8229 42.8569 85.6491 42.6825C85.4753 42.4979 85.2607 42.4004 85.0052 42.3902V42.3594H86.0631ZM86.0631 41.6516V42.0978L84.1926 41.9286C84.4174 41.9286 84.6525 41.9132 84.8978 41.8824C85.1534 41.8516 85.3885 41.8157 85.6031 41.7747C85.8178 41.7337 85.9711 41.6926 86.0631 41.6516ZM80.9728 51.576V52.6992H79.7462V52.5454C79.7462 52.5454 79.7769 52.5454 79.8382 52.5454C79.9098 52.5454 79.9456 52.5454 79.9456 52.5454C80.2113 52.5454 80.4362 52.453 80.6202 52.2684C80.8144 52.0735 80.9166 51.8427 80.9268 51.576H80.9728ZM80.9728 43.0518H80.9268C80.9268 42.7851 80.8297 42.5594 80.6355 42.3748C80.4413 42.1799 80.2113 42.0824 79.9456 42.0824C79.9456 42.0824 79.9149 42.0824 79.8536 42.0824C79.7922 42.0824 79.7616 42.0824 79.7616 42.0824L79.7462 41.9286H80.9728V43.0518Z" fill="#0F0F0F"/>
<path d="M99.4043 41.7132C99.4043 41.7132 99.4043 41.7388 99.4043 41.7901C99.4043 41.8311 99.4043 41.8516 99.4043 41.8516L92.5662 52.6992H91.4316V52.5607L97.8711 42.3748H91.6462V41.9132H97.7791C97.9835 41.9132 98.1982 41.9029 98.423 41.8824C98.6581 41.8619 98.8626 41.8363 99.0363 41.8055C99.2203 41.7747 99.343 41.7439 99.4043 41.7132ZM99.5116 52.2376L99.4196 52.6992H92.4128V52.2376H99.5116ZM99.9716 50.3297L99.4656 52.6992H97.4418L97.5491 52.3146L97.7178 52.2376C98.2902 52.2376 98.745 52.053 99.0823 51.6837C99.4299 51.3144 99.6752 50.8631 99.8183 50.3297H99.9716ZM92.7042 42.3748C92.4486 42.385 92.234 42.4774 92.0602 42.6517C91.8864 42.8261 91.7996 43.0415 91.7996 43.298V43.5749H91.6462V42.3286H92.7042V42.3748ZM91.6462 41.6362C91.7485 41.6773 91.9018 41.7183 92.1062 41.7593C92.3209 41.8004 92.556 41.8363 92.8115 41.867C93.067 41.8978 93.3021 41.9132 93.5168 41.9132L91.6462 42.0824V41.6362Z" fill="#0F0F0F"/>
<path d="M113.699 41.9286V52.6992H112.703V41.9286H113.699ZM106.432 41.9286V52.6992H105.435V41.9286H106.432ZM112.841 47.1446V47.6062H106.279V47.1446H112.841ZM105.481 51.576V52.6992H104.255V52.5454C104.255 52.5454 104.286 52.5454 104.347 52.5454C104.418 52.5454 104.454 52.5454 104.454 52.5454C104.72 52.5454 104.945 52.453 105.129 52.2684C105.323 52.0735 105.425 51.8427 105.435 51.576H105.481ZM105.481 43.0518H105.435C105.425 42.7851 105.323 42.5594 105.129 42.3748C104.945 42.1799 104.72 42.0824 104.454 42.0824C104.454 42.0824 104.418 42.0824 104.347 42.0824C104.286 42.0824 104.255 42.0824 104.255 42.0824V41.9286H105.481V43.0518ZM106.386 51.576H106.432C106.442 51.8427 106.539 52.0735 106.723 52.2684C106.918 52.453 107.148 52.5454 107.413 52.5454C107.413 52.5454 107.444 52.5454 107.505 52.5454C107.567 52.5454 107.602 52.5454 107.613 52.5454V52.6992H106.386V51.576ZM106.386 43.0518V41.9286H107.613V42.0824C107.602 42.0824 107.567 42.0824 107.505 42.0824C107.444 42.0824 107.413 42.0824 107.413 42.0824C107.148 42.0824 106.918 42.1799 106.723 42.3748C106.539 42.5594 106.442 42.7851 106.432 43.0518H106.386ZM112.749 51.576V52.6992H111.522V52.5454C111.533 52.5454 111.568 52.5454 111.63 52.5454C111.691 52.5454 111.722 52.5454 111.722 52.5454C111.987 52.5454 112.217 52.453 112.412 52.2684C112.606 52.0735 112.703 51.8427 112.703 51.576H112.749ZM112.749 43.0518H112.703C112.703 42.7851 112.606 42.5594 112.412 42.3748C112.217 42.1799 111.987 42.0824 111.722 42.0824C111.722 42.0824 111.691 42.0824 111.63 42.0824C111.568 42.0824 111.533 42.0824 111.522 42.0824V41.9286H112.749V43.0518ZM113.653 51.576H113.699C113.71 51.8427 113.807 52.0735 113.991 52.2684C114.185 52.453 114.415 52.5454 114.681 52.5454C114.681 52.5454 114.711 52.5454 114.773 52.5454C114.844 52.5454 114.88 52.5454 114.88 52.5454V52.6992H113.653V51.576ZM113.653 43.0518V41.9286H114.88V42.0824C114.88 42.0824 114.844 42.0824 114.773 42.0824C114.711 42.0824 114.681 42.0824 114.681 42.0824C114.415 42.0824 114.185 42.1799 113.991 42.3748C113.807 42.5594 113.71 42.7851 113.699 43.0518H113.653Z" fill="#0F0F0F"/>
<path d="M121.741 41.9286V52.6992H120.744V41.9286H121.741ZM120.79 51.576V52.6992H119.564V52.5454C119.564 52.5454 119.594 52.5454 119.656 52.5454C119.727 52.5454 119.763 52.5454 119.763 52.5454C120.029 52.5454 120.254 52.453 120.438 52.2684C120.632 52.0735 120.734 51.8427 120.744 51.576H120.79ZM120.79 43.0518H120.744C120.734 42.7851 120.632 42.5594 120.438 42.3748C120.254 42.1799 120.029 42.0824 119.763 42.0824C119.763 42.0824 119.727 42.0824 119.656 42.0824C119.594 42.0824 119.564 42.0824 119.564 42.0824V41.9286H120.79V43.0518ZM121.695 51.576H121.741C121.751 51.8427 121.848 52.0735 122.032 52.2684C122.226 52.453 122.456 52.5454 122.722 52.5454C122.722 52.5454 122.753 52.5454 122.814 52.5454C122.875 52.5454 122.911 52.5454 122.921 52.5454V52.6992H121.695V51.576ZM121.695 43.0518V41.9286H122.921V42.0824C122.911 42.0824 122.875 42.0824 122.814 42.0824C122.753 42.0824 122.722 42.0824 122.722 42.0824C122.456 42.0824 122.226 42.1799 122.032 42.3748C121.848 42.5594 121.751 42.7851 121.741 43.0518H121.695Z" fill="#0F0F0F"/>
<path d="M129.758 41.9286V52.6992H128.761V41.9286H129.758ZM133.898 52.2222V52.6992H129.712V52.2222H133.898ZM133.238 47.16V47.6216H129.712V47.16H133.238ZM133.898 41.9286V42.4056H129.712V41.9286H133.898ZM134.833 50.2066L133.944 52.6992H131.398L131.95 52.2222C132.492 52.2222 132.932 52.1402 133.269 51.9761C133.616 51.8017 133.898 51.5606 134.112 51.2529C134.327 50.9451 134.516 50.5964 134.679 50.2066H134.833ZM133.238 47.5909V48.6064H133.085V48.3756C133.085 48.1704 133.013 47.996 132.87 47.8524C132.727 47.6986 132.553 47.6216 132.349 47.6216V47.5909H133.238ZM133.238 46.1753V47.1908H132.349V47.16C132.553 47.1498 132.727 47.0728 132.87 46.9292C133.013 46.7754 133.085 46.5959 133.085 46.3907V46.1753H133.238ZM133.898 42.3594V43.5903H133.744V43.3134C133.744 43.0672 133.657 42.8569 133.484 42.6825C133.31 42.4979 133.095 42.4004 132.84 42.3902V42.3594H133.898ZM133.898 41.6516V42.0978L132.027 41.9286C132.252 41.9286 132.487 41.9132 132.732 41.8824C132.988 41.8516 133.223 41.8157 133.438 41.7747C133.652 41.7337 133.806 41.6926 133.898 41.6516ZM128.807 51.576V52.6992H127.581V52.5454C127.581 52.5454 127.611 52.5454 127.673 52.5454C127.744 52.5454 127.78 52.5454 127.78 52.5454C128.046 52.5454 128.271 52.453 128.455 52.2684C128.649 52.0735 128.751 51.8427 128.761 51.576H128.807ZM128.807 43.0518H128.761C128.761 42.7851 128.664 42.5594 128.47 42.3748C128.276 42.1799 128.046 42.0824 127.78 42.0824C127.78 42.0824 127.749 42.0824 127.688 42.0824C127.627 42.0824 127.596 42.0824 127.596 42.0824L127.581 41.9286H128.807V43.0518Z" fill="#0F0F0F"/>
<path d="M143.973 52.9146L139.22 42.0209H140.523L144.28 51.4529L143.973 52.9146ZM143.973 52.9146L143.835 51.8376L147.913 41.9747H148.833L144.678 51.3298C144.678 51.3298 144.648 51.3965 144.586 51.5298C144.535 51.6529 144.469 51.8068 144.387 51.9914C144.315 52.1761 144.249 52.3556 144.188 52.53C144.137 52.7044 144.111 52.8326 144.111 52.9146H143.973ZM147.484 43.0364C147.596 42.7287 147.576 42.4928 147.423 42.3286C147.269 42.1645 147.096 42.0824 146.901 42.0824H146.763V41.9286H149.845V42.0824C149.845 42.0824 149.82 42.0824 149.769 42.0824C149.728 42.0824 149.707 42.0824 149.707 42.0824C149.482 42.0824 149.242 42.1594 148.987 42.3132C148.731 42.4569 148.522 42.703 148.358 43.0518L147.484 43.0364ZM140.937 43.0364L139.665 43.0518C139.511 42.703 139.307 42.4569 139.051 42.3132C138.796 42.1594 138.551 42.0824 138.315 42.0824C138.315 42.0824 138.295 42.0824 138.254 42.0824C138.213 42.0824 138.193 42.0824 138.193 42.0824V41.9286H141.643V42.0824H141.505C141.31 42.0824 141.137 42.1645 140.983 42.3286C140.84 42.4928 140.825 42.7287 140.937 43.0364Z" fill="#0F0F0F"/>
<path d="M156.419 41.7132L160.957 52.6069H159.654L156.112 43.1749L156.419 41.7132ZM153.123 51.576C153.051 51.7812 153.041 51.9555 153.092 52.0991C153.143 52.2428 153.225 52.3556 153.337 52.4377C153.46 52.5095 153.583 52.5454 153.705 52.5454H153.843V52.6992H150.762V52.5454C150.762 52.5454 150.787 52.5454 150.838 52.5454C150.879 52.5454 150.9 52.5454 150.9 52.5454C151.135 52.5454 151.375 52.4736 151.62 52.3299C151.876 52.1761 152.085 51.9248 152.249 51.576H153.123ZM156.419 41.7132L156.557 42.7902L152.709 52.6531H151.789L155.714 43.298C155.714 43.298 155.739 43.2364 155.79 43.1133C155.852 42.98 155.918 42.821 155.99 42.6364C156.072 42.4517 156.138 42.2722 156.189 42.0978C156.25 41.9234 156.281 41.7952 156.281 41.7132H156.419ZM158.581 48.4987V48.9603H153.782V48.4987H158.581ZM159.271 51.576H160.528C160.681 51.9248 160.886 52.1761 161.141 52.3299C161.397 52.4736 161.642 52.5454 161.877 52.5454C161.877 52.5454 161.898 52.5454 161.939 52.5454C161.98 52.5454 162 52.5454 162 52.5454V52.6992H158.55V52.5454H158.688C158.882 52.5454 159.056 52.4633 159.21 52.2992C159.363 52.1248 159.383 51.8837 159.271 51.576Z" fill="#0F0F0F"/>
</svg>
