<svg width="19" height="20" viewBox="0 0 19 20" fill="none" xmlns="http://www.w3.org/2000/svg">
<path d="M9.10482 17.7187C4.6319 17.7187 0.990234 14.077 0.990234 9.60408C0.990234 5.13117 4.6319 1.4895 9.10482 1.4895C13.5777 1.4895 17.2194 5.13117 17.2194 9.60408C17.2194 14.077 13.5777 17.7187 9.10482 17.7187ZM9.10482 2.677C5.28107 2.677 2.17773 5.78825 2.17773 9.60408C2.17773 13.4199 5.28107 16.5312 9.10482 16.5312C12.9286 16.5312 16.0319 13.4199 16.0319 9.60408C16.0319 5.78825 12.9286 2.677 9.10482 2.677Z" fill="#0F0F0F"/>
<path d="M17.4173 18.5103C17.2669 18.5103 17.1165 18.4549 16.9977 18.3361L15.4144 16.7528C15.1848 16.5232 15.1848 16.1432 15.4144 15.9136C15.644 15.6841 16.024 15.6841 16.2535 15.9136L17.8369 17.497C18.0665 17.7266 18.0665 18.1066 17.8369 18.3361C17.7181 18.4549 17.5677 18.5103 17.4173 18.5103Z" fill="#0F0F0F"/>
</svg>
