<svg width="37" height="37" viewBox="0 0 37 37" fill="none" xmlns="http://www.w3.org/2000/svg">
<rect width="36.0015" height="36" rx="8" transform="matrix(4.37114e-08 1 1 -4.37114e-08 0.666992 0)" fill="#0F0F0F"/>
<path d="M23.7761 12.0736L11.9561 16.6316C11.1494 16.9556 11.1541 17.4056 11.8081 17.6062L14.8427 18.5529L21.8641 14.1229C22.1961 13.9209 22.4994 14.0296 22.2501 14.2509L16.5614 19.3849H16.5601L16.5614 19.3856L16.3521 22.5136C16.6587 22.5136 16.7941 22.3729 16.9661 22.2069L18.4401 20.7736L21.5061 23.0382C22.0714 23.3496 22.4774 23.1896 22.6181 22.5149L24.6307 13.0296C24.8367 12.2036 24.3154 11.8296 23.7761 12.0736Z" fill="white"/>
</svg>
