<svg width="40" height="41" viewBox="0 0 40 41" fill="none" xmlns="http://www.w3.org/2000/svg">
<g clip-path="url(#clip0_20_2149)">
<path d="M0.85332 19.9151C0.852383 23.3021 1.73738 26.6093 3.4202 29.5243L0.692383 39.484L10.8849 36.8115C13.704 38.3462 16.8626 39.1503 20.0724 39.1505H20.0808C30.6769 39.1505 39.3024 30.5282 39.3069 19.9302C39.3089 14.7947 37.3108 9.96568 33.6805 6.33255C30.0508 2.69974 25.2235 0.698022 20.08 0.695679C9.4827 0.695679 0.857852 9.31756 0.853477 19.9151" fill="url(#paint0_linear_20_2149)"/>
<path d="M0.167188 19.9088C0.166094 23.4177 1.08281 26.8431 2.82562 29.8625L0 40.1792L10.558 37.4109C13.467 38.997 16.7423 39.8333 20.0752 39.8345H20.0837C31.06 39.8345 39.9953 30.902 40 19.9247C40.0019 14.6047 37.9319 9.60203 34.1719 5.83875C30.4114 2.07594 25.4114 0.0021875 20.0837 0C9.10562 0 0.171563 8.93125 0.167188 19.9088ZM6.45469 29.3425L6.06047 28.7167C4.40328 26.0817 3.52859 23.0367 3.52984 19.91C3.53344 10.7858 10.9591 3.3625 20.09 3.3625C24.5119 3.36438 28.6675 5.08813 31.7931 8.21563C34.9186 11.3434 36.6384 15.5013 36.6373 19.9234C36.6333 29.0477 29.2075 36.4719 20.0837 36.4719H20.0772C17.1064 36.4703 14.1928 35.6725 11.6519 34.1648L11.0472 33.8063L4.78188 35.4489L6.45469 29.3423V29.3425Z" fill="url(#paint1_linear_20_2149)"/>
<path d="M15.1061 11.5857C14.7332 10.7571 14.3409 10.7403 13.9864 10.7258C13.6961 10.7133 13.3642 10.7142 13.0326 10.7142C12.7007 10.7142 12.1615 10.8391 11.7057 11.3367C11.2495 11.8349 9.96387 13.0386 9.96387 15.4869C9.96387 17.9353 11.7471 20.3014 11.9957 20.6338C12.2446 20.9655 15.4384 26.1505 20.4965 28.1452C24.7003 29.8028 25.5557 29.4732 26.4681 29.39C27.3806 29.3072 29.4125 28.1866 29.827 27.0246C30.2418 25.8627 30.2418 24.8668 30.1175 24.6586C29.9931 24.4513 29.6612 24.3268 29.1635 24.078C28.6657 23.8291 26.2192 22.6252 25.7631 22.4591C25.3068 22.2932 24.9751 22.2103 24.6432 22.7086C24.3114 23.2061 23.3584 24.3268 23.0679 24.6586C22.7778 24.9913 22.4873 25.0327 21.9898 24.7838C21.4918 24.5341 19.8892 24.0093 17.9878 22.3141C16.5084 20.995 15.5096 19.3661 15.2193 18.8678C14.929 18.3703 15.1882 18.1007 15.4378 17.8527C15.6614 17.6297 15.9356 17.2716 16.1846 16.9811C16.4328 16.6905 16.5156 16.4832 16.6815 16.1513C16.8476 15.8191 16.7645 15.5285 16.6403 15.2796C16.5156 15.0307 15.5486 12.5696 15.1061 11.5857Z" fill="white"/>
</g>
<defs>
<linearGradient id="paint0_linear_20_2149" x1="19.9996" y1="39.484" x2="19.9996" y2="0.695679" gradientUnits="userSpaceOnUse">
<stop stop-color="#1FAF38"/>
<stop offset="1" stop-color="#60D669"/>
</linearGradient>
<linearGradient id="paint1_linear_20_2149" x1="20" y1="40.1792" x2="20" y2="0" gradientUnits="userSpaceOnUse">
<stop stop-color="#F9F9F9"/>
<stop offset="1" stop-color="white"/>
</linearGradient>
<clipPath id="clip0_20_2149">
<rect width="40" height="40.3125" fill="white"/>
</clipPath>
</defs>
</svg>
