<svg width="22" height="22" viewBox="0 0 22 22" fill="none" xmlns="http://www.w3.org/2000/svg">
<g clip-path="url(#clip0_183_12174)">
<mask id="path-1-inside-1_183_12174" fill="white">
<path d="M0.471328 10.8684C0.470812 12.7168 0.957562 14.5216 1.88311 16.1125L0.382812 21.5478L5.98869 20.0893C7.5392 20.9269 9.27643 21.3657 11.0418 21.3659H11.0465C16.8743 21.3659 21.6183 16.6603 21.6208 10.8766C21.6219 8.07401 20.523 5.43862 18.5263 3.45589C16.53 1.47333 13.8749 0.380918 11.046 0.379639C5.21749 0.379639 0.47382 5.08491 0.471414 10.8684"/>
</mask>
<path d="M0.471328 10.8684C0.470812 12.7168 0.957562 14.5216 1.88311 16.1125L0.382812 21.5478L5.98869 20.0893C7.5392 20.9269 9.27643 21.3657 11.0418 21.3659H11.0465C16.8743 21.3659 21.6183 16.6603 21.6208 10.8766C21.6219 8.07401 20.523 5.43862 18.5263 3.45589C16.53 1.47333 13.8749 0.380918 11.046 0.379639C5.21749 0.379639 0.47382 5.08491 0.471414 10.8684" fill="url(#paint0_linear_183_12174)"/>
<path d="M1.88311 16.1125L2.84706 16.3785L2.95897 15.9731L2.74746 15.6096L1.88311 16.1125ZM0.382812 21.5478L-0.58114 21.2817L-1.04213 22.9518L0.634601 22.5156L0.382812 21.5478ZM5.98869 20.0893L6.46396 19.2095L6.11773 19.0225L5.7369 19.1216L5.98869 20.0893ZM11.0418 21.3659L11.0418 22.3659H11.0418V21.3659ZM21.6208 10.8766L22.6208 10.8771V10.877L21.6208 10.8766ZM18.5263 3.45589L17.8216 4.16544L17.8217 4.16547L18.5263 3.45589ZM11.046 0.379639L11.0465 -0.620361H11.046V0.379639ZM-0.528672 10.8681C-0.529237 12.8929 0.00415492 14.8715 1.01876 16.6153L2.74746 15.6096C1.91097 14.1718 1.47086 12.5406 1.47133 10.8686L-0.528672 10.8681ZM0.919157 15.8464L-0.58114 21.2817L1.34676 21.8139L2.84706 16.3785L0.919157 15.8464ZM0.634601 22.5156L6.24048 21.0571L5.7369 19.1216L0.131024 20.58L0.634601 22.5156ZM5.51342 20.9692C7.21018 21.8857 9.11076 22.3657 11.0418 22.3659L11.0419 20.3659C9.4421 20.3658 7.86821 19.968 6.46396 19.2095L5.51342 20.9692ZM11.0418 22.3659H11.0465V20.3659H11.0418V22.3659ZM11.0465 22.3659C17.4192 22.3659 22.6181 17.2201 22.6208 10.8771L20.6208 10.8762C20.6186 16.1006 16.3294 20.3659 11.0465 20.3659V22.3659ZM22.6208 10.877C22.622 7.80664 21.4159 4.91602 19.2309 2.74631L17.8217 4.16547C19.63 5.96121 20.6218 8.34138 20.6208 10.8762L22.6208 10.877ZM19.2309 2.74634C17.0464 0.576849 14.1378 -0.618963 11.0465 -0.620361L11.0456 1.37964C13.612 1.3808 16.0135 2.36981 17.8216 4.16544L19.2309 2.74634ZM11.046 -0.620361C4.67266 -0.620361 -0.525947 4.5251 -0.528586 10.8679L1.47141 10.8688C1.47359 5.64472 5.76231 1.37964 11.046 1.37964V-0.620361Z" fill="black" mask="url(#path-1-inside-1_183_12174)"/>
<path d="M0.0919531 10.8649C0.0913516 12.7799 0.595547 14.6493 1.55409 16.2971L0 21.9273L5.80688 20.4165C7.40687 21.2821 9.20829 21.7385 11.0413 21.7392H11.0461C17.083 21.7392 21.9974 16.8644 22 10.8736C22.001 7.97031 20.8625 5.24018 18.7945 3.18642C16.7263 1.13291 13.9763 0.0011938 11.0461 0C5.00809 0 0.0943594 4.87411 0.0919531 10.8649ZM3.55008 16.0133L3.33326 15.6718C2.4218 14.2337 1.94073 12.572 1.94141 10.8656C1.94339 5.88619 6.02748 1.83504 11.0495 1.83504C13.4815 1.83606 15.7671 2.77678 17.4862 4.48357C19.2052 6.19053 20.1511 8.4596 20.1505 10.8729C20.1483 15.8524 16.0641 19.904 11.0461 19.904H11.0425C9.40852 19.9032 7.80605 19.4678 6.40853 18.645L6.07595 18.4493L2.63003 19.3458L3.55008 16.0132V16.0133Z" fill="url(#paint1_linear_183_12174)"/>
<path d="M8.30867 6.32274C8.10362 5.87054 7.88783 5.86142 7.69284 5.85349C7.53317 5.84666 7.35064 5.84718 7.16828 5.84718C6.98575 5.84718 6.68918 5.91531 6.4385 6.1869C6.18756 6.45874 5.48047 7.11567 5.48047 8.45179C5.48047 9.78799 6.46127 11.0793 6.598 11.2606C6.7349 11.4417 8.49146 14.2713 11.2734 15.3599C13.5855 16.2645 14.056 16.0846 14.5578 16.0392C15.0597 15.994 16.1772 15.3825 16.4052 14.7483C16.6333 14.1142 16.6333 13.5707 16.5649 13.4571C16.4965 13.344 16.314 13.276 16.0403 13.1403C15.7665 13.0044 14.4209 12.3474 14.17 12.2568C13.9191 12.1662 13.7367 12.121 13.5541 12.3929C13.3716 12.6645 12.8475 13.276 12.6877 13.4571C12.5281 13.6387 12.3684 13.6613 12.0947 13.5254C11.8208 13.3892 10.9394 13.1027 9.89361 12.1776C9.07996 11.4578 8.53065 10.5688 8.37098 10.2969C8.2113 10.0254 8.35387 9.87821 8.49112 9.74288C8.61409 9.6212 8.76491 9.42576 8.9019 9.26724C9.03837 9.10864 9.08391 8.99548 9.17518 8.81436C9.26653 8.63308 9.22081 8.47447 9.15249 8.33863C9.08391 8.2028 8.55205 6.85969 8.30867 6.32274Z" fill="white"/>
</g>
<defs>
<linearGradient id="paint0_linear_183_12174" x1="11.0018" y1="21.5478" x2="11.0018" y2="0.379639" gradientUnits="userSpaceOnUse">
<stop stop-color="#1FAF38"/>
<stop offset="1" stop-color="#60D669"/>
</linearGradient>
<linearGradient id="paint1_linear_183_12174" x1="11" y1="21.9273" x2="11" y2="0" gradientUnits="userSpaceOnUse">
<stop stop-color="#F9F9F9"/>
<stop offset="1" stop-color="white"/>
</linearGradient>
<clipPath id="clip0_183_12174">
<rect width="22" height="22" fill="white"/>
</clipPath>
</defs>
</svg>
